<svg xmlns="http://www.w3.org/2000/svg" width="256" height="256" viewBox="0 0 256 256" role="img" aria-labelledby="title desc">
  <title id="title">Wallet Assistant icon</title>
  <desc id="desc">A rounded wallet mark with cards, a voucher notch, and barcode lines.</desc>
  <defs>
    <linearGradient id="bg" x1="32" y1="20" x2="224" y2="236" gradientUnits="userSpaceOnUse">
      <stop offset="0" stop-color="#11b7d9"/>
      <stop offset="0.52" stop-color="#276ef1"/>
      <stop offset="1" stop-color="#102a56"/>
    </linearGradient>
    <linearGradient id="card" x1="76" y1="59" x2="186" y2="183" gradientUnits="userSpaceOnUse">
      <stop offset="0" stop-color="#ffffff"/>
      <stop offset="1" stop-color="#d9f7ff"/>
    </linearGradient>
    <linearGradient id="voucher" x1="87" y1="135" x2="190" y2="201" gradientUnits="userSpaceOnUse">
      <stop offset="0" stop-color="#ffd34d"/>
      <stop offset="1" stop-color="#ff7a59"/>
    </linearGradient>
    <filter id="shadow" x="-20%" y="-20%" width="140%" height="140%" color-interpolation-filters="sRGB">
      <feDropShadow dx="0" dy="10" stdDeviation="10" flood-color="#071a36" flood-opacity="0.26"/>
    </filter>
  </defs>

  <rect width="256" height="256" rx="56" fill="url(#bg)"/>

  <g filter="url(#shadow)">
    <path d="M70 84c0-13.3 10.7-24 24-24h67c13.3 0 24 10.7 24 24v10H95c-13.8 0-25 11.2-25 25V84Z" fill="#baf3ff" opacity="0.82"/>
    <path d="M58 111c0-15.5 12.5-28 28-28h88c15.5 0 28 12.5 28 28v61c0 15.5-12.5 28-28 28H86c-15.5 0-28-12.5-28-28v-61Z" fill="url(#card)"/>
    <path d="M76 126c0-7.7 6.3-14 14-14h96v24h-96c-7.7 0-14-6.3-14-14v4Z" fill="#16335f" opacity="0.12"/>
    <path d="M58 134h122c12.2 0 22 9.8 22 22v16c0 15.5-12.5 28-28 28H86c-15.5 0-28-12.5-28-28v-38Z" fill="#153760"/>

    <path d="M92 142h82c6.6 0 12 5.4 12 12v32H80v-32c0-6.6 5.4-12 12-12Z" fill="url(#voucher)"/>
    <circle cx="80" cy="164" r="10" fill="#153760"/>
    <circle cx="186" cy="164" r="10" fill="#153760"/>

    <rect x="101" y="158" width="7" height="28" rx="2" fill="#153760"/>
    <rect x="114" y="158" width="4" height="28" rx="2" fill="#153760"/>
    <rect x="126" y="158" width="10" height="28" rx="2" fill="#153760"/>
    <rect x="143" y="158" width="5" height="28" rx="2" fill="#153760"/>
    <rect x="156" y="158" width="8" height="28" rx="2" fill="#153760"/>

    <path d="M165 72l5.8 12.2L184 90l-13.2 5.8L165 108l-5.8-12.2L146 90l13.2-5.8L165 72Z" fill="#ffffff"/>
    <path d="M82 64l3.5 7.4L94 75l-8.5 3.6L82 86l-3.5-7.4L70 75l8.5-3.6L82 64Z" fill="#ffd34d"/>
  </g>
</svg>
